<svg id="svg" version="1.1" xmlns="http://www.w3.org/2000/svg" xmlns:xlink="http://www.w3.org/1999/xlink" width="400" height="400" viewBox="0, 0, 400,400"><g id="svgg"><path id="path0" d="M172.747 99.583 C 172.747 109.942,172.767 114.155,172.792 108.946 C 172.816 103.736,172.816 95.261,172.792 90.112 C 172.767 84.963,172.747 89.225,172.747 99.583 M138.766 175.317 L 104.969 209.115 105.048 220.682 C 105.108 229.545,105.189 232.873,105.392 234.917 L 105.657 237.583 91.412 251.834 L 77.167 266.084 77.167 273.001 L 77.167 279.917 51.583 305.500 L 26.000 331.083 26.000 335.875 C 26.000 338.510,26.056 340.667,26.125 340.667 C 26.194 340.667,59.232 307.685,99.542 267.375 L 172.833 194.082 172.833 167.884 C 172.833 153.475,172.773 141.649,172.698 141.603 C 172.624 141.557,157.355 156.728,138.766 175.317 " stroke="none" fill="#047ccc" fill-rule="evenodd"></path><path id="path1" d="M97.500 50.774 C 97.500 50.833,97.865 51.489,98.312 52.232 C 102.138 58.599,104.405 65.905,105.013 73.833 C 105.147 75.575,105.167 88.305,105.086 119.417 L 104.972 162.583 91.070 176.493 L 77.167 190.404 77.167 197.316 L 77.167 204.228 51.583 229.819 L 26.000 255.409 26.000 260.121 C 26.000 262.713,26.056 264.833,26.125 264.833 C 26.194 264.833,59.188 231.890,99.445 191.625 L 172.639 118.417 172.723 96.083 C 172.815 71.636,172.791 72.258,173.841 67.131 C 174.888 62.019,176.921 56.744,179.577 52.252 C 179.993 51.548,180.333 50.904,180.333 50.820 C 180.333 50.727,163.930 50.667,138.917 50.667 C 116.138 50.667,97.500 50.715,97.500 50.774 " stroke="none" fill="#04b4bc" fill-rule="evenodd"></path><path id="path2" d="M309.461 80.721 L 275.672 114.495 275.618 167.039 L 275.564 219.583 275.211 221.667 C 271.405 244.112,254.328 261.592,232.917 264.960 L 232.083 265.091 232.041 303.048 L 231.999 341.004 232.625 340.925 C 232.969 340.881,234.112 340.802,235.167 340.750 C 265.090 339.258,296.432 323.369,316.000 299.770 C 317.054 298.499,318.091 297.262,318.304 297.021 C 320.857 294.132,325.925 286.576,328.706 281.513 C 337.615 265.289,342.216 249.552,343.329 231.500 C 343.513 228.507,343.525 152.333,343.351 85.515 L 343.250 46.947 309.461 80.721 M73.824 207.458 L 73.250 208.083 73.875 207.509 C 74.457 206.974,74.577 206.833,74.449 206.833 C 74.422 206.833,74.140 207.115,73.824 207.458 M144.372 245.813 C 128.767 261.431,116.000 274.243,116.000 274.283 C 116.000 274.363,119.267 280.596,120.175 282.250 C 138.283 315.227,175.823 338.780,213.417 340.750 C 214.425 340.803,215.531 340.882,215.875 340.925 L 216.501 341.004 216.459 303.048 L 216.417 265.091 215.583 264.954 C 213.053 264.540,207.903 263.181,206.583 262.580 C 206.308 262.455,205.123 261.941,203.950 261.438 C 187.424 254.355,175.664 238.957,173.321 221.333 C 173.132 219.912,172.925 218.450,172.860 218.083 L 172.744 217.417 144.372 245.813 M61.824 219.458 L 61.250 220.083 61.875 219.509 C 62.457 218.974,62.577 218.833,62.449 218.833 C 62.422 218.833,62.140 219.115,61.824 219.458 M55.658 225.625 L 55.083 226.250 55.708 225.676 C 56.290 225.141,56.410 225.000,56.283 225.000 C 56.255 225.000,55.974 225.281,55.658 225.625 M43.658 237.625 L 43.083 238.250 43.708 237.676 C 44.290 237.141,44.410 237.000,44.283 237.000 C 44.255 237.000,43.974 237.281,43.658 237.625 M37.491 243.792 L 36.917 244.417 37.542 243.842 C 38.123 243.308,38.243 243.167,38.116 243.167 C 38.088 243.167,37.807 243.448,37.491 243.792 " stroke="none" fill="#1c1c1c" fill-rule="evenodd"></path><path id="path3" d="" stroke="none" fill="#106c48" fill-rule="evenodd"></path><path id="path4" d="" stroke="none" fill="#101c4c" fill-rule="evenodd"></path></g></svg>